<?xml version="1.0" encoding="UTF-8" standalone="no"?>
<svg
   version="1.0"
   width="715pt"
   height="389.43259pt"
   viewBox="0 0 715 389.43259"
   preserveAspectRatio="xMidYMid"
   id="svg5"
   sodipodi:docname="RoadStrip3.svg"
   inkscape:version="1.4 (86a8ad7, 2024-10-11)"
   xmlns:inkscape="http://www.inkscape.org/namespaces/inkscape"
   xmlns:sodipodi="http://sodipodi.sourceforge.net/DTD/sodipodi-0.dtd"
   xmlns="http://www.w3.org/2000/svg"
   xmlns:svg="http://www.w3.org/2000/svg">
  <defs
     id="defs5" />
  <sodipodi:namedview
     id="namedview5"
     pagecolor="#ffffff"
     bordercolor="#000000"
     borderopacity="0.25"
     inkscape:showpageshadow="2"
     inkscape:pageopacity="0.0"
     inkscape:pagecheckerboard="0"
     inkscape:deskcolor="#d1d1d1"
     inkscape:document-units="pt"
     inkscape:clip-to-page="true"
     inkscape:zoom="0.61125"
     inkscape:cx="249.48875"
     inkscape:cy="125.15337"
     inkscape:window-width="1920"
     inkscape:window-height="1017"
     inkscape:window-x="-8"
     inkscape:window-y="-8"
     inkscape:window-maximized="1"
     inkscape:current-layer="svg5" />
  <g
     transform="matrix(0.1,0,0,-0.1,-156,389.43211)"
     fill="#000000"
     stroke="none"
     id="g5">
    <path
       id="path1"
       d="m 4325.1123,3893.9746 c -9.1106,0.5308 -18.1841,0.4509 -27.2314,-0.2344 -10.3399,-0.7832 -20.6289,-2.3711 -30.8789,-4.7461 -20,-5 -55.0069,-17.9892 -77.0069,-28.9892 -34,-17 -539.9961,-518.0088 -630.9961,-624.0088 -19,-22 -56.0019,-57.0029 -82.0019,-78.0029 -27,-21 -44.002,-37.9981 -37.002,-37.9981 6,0 -13.9961,-24.0019 -45.9961,-52.0019 -32,-29 -65.0039,-59.9942 -74.0039,-68.9942 -8,-9 -80.9971,-83.9961 -161.9971,-165.9961 -169,-172 -191.9931,-209.0078 -192.9931,-313.0078 0,-102 22.9902,-138.9902 219.9902,-339.9902 95,-96 235.0117,-240.0098 312.0117,-320.0098 77,-80 214.9873,-221 306.9873,-315 91,-93 166.0108,-171.0019 166.0108,-172.0019 0,-2 43.998,-45.9981 97.998,-97.9981 114,-111 170.9991,-140.9971 258.9991,-131.9971 80,8 134.997,38.0088 206.997,114.0088 69,71 96.0059,127.9952 96.0059,199.9952 0,51 -20.001,119.0019 -41.001,142.0019 -5.3096,5.8406 -8.2065,11.5005 -11.3672,17.0947 -2.5159,0.046 -5.553,1.4988 -8.5693,4.9073 -2.617,2.9572 -4.8312,6.2325 -7.207,9.375 -0.366,0.514 -0.7327,1.024 -1.0987,1.538 -0.7152,1.0043 -1.2958,1.9806 -1.7431,2.9297 -4.6204,-2.1332 -9.0235,-0.4978 -9.0235,4.1455 0,11 -100.9951,126.0059 -109.9951,126.0059 -3,-1 -29.9961,24.9971 -60.9961,56.9971 -20.7843,21.4548 -36.2317,39.4472 -42.9053,49.4824 -0.2551,0.2396 -0.5069,0.4823 -0.7617,0.7471 -1.2286,1.277 -0.5112,0.5657 -2.1533,2.1386 -2.3725,2.4885 -4.7275,5.0022 -7.0752,7.5147 -2.3133,2.6123 -4.5911,5.2448 -6.8262,7.9248 -2.4347,2.6129 -4.894,5.2013 -7.6465,7.4853 -2.9458,2.4682 -5.8468,4.9777 -8.9941,7.1924 -5.1887,3.6512 -6.4974,7.8254 -5.3613,10.8106 -10.7664,5.9501 -28.1219,19.7501 -47.2852,39.7119 -24,25 -41.0019,45 -37.0019,45 4,0 -38.9952,45.001 -94.9952,101.001 l -102.9931,99.9902 420,-3.999 c 464,-5 505.0019,-9.001 682.0019,-71.001 129,-45 265.9981,-104 277.9981,-120 6,-7 28.9912,-22.999 50.9912,-33.999 23,-12 54.0049,-32 70.0049,-45 16,-14 37.999,-25.9932 48.999,-27.9932 11,-3 19.9951,-9 19.9951,-15 0,-6 23.0098,-30.0088 50.0098,-54.0088 51,-43 195,-190.9951 195,-199.9951 0,-3 9.9912,-16 20.9912,-30 110,-136 223.0029,-349.0039 303.0029,-569.0039 98,-268.00004 134.9981,-479.99415 142.9981,-803.99415 l 6.0058,-227.00683281 h 308.9942 310.0049 L 6917.0068,237.00684 c -8,367 -50.0127,613.98834 -158.0127,932.98826 -38,113 -69.997,210.0098 -71.997,215.0098 -1,6 -11.9942,26 -23.9942,45 -11,19 -24.0078,45.9931 -28.0078,57.9931 -9,30 -87.0019,182.0088 -112.0019,219.0088 -10,15 -24,38.9981 -30,52.9981 -6,14 -25.9961,46.001 -45.9961,71.001 -19,26 -40.9922,56.9902 -46.9922,69.9902 -7,13 -16.0098,26.0039 -20.0098,29.0039 -4,3 -18.9922,21.9971 -31.9922,41.9971 -48,71 -288.0019,328.0078 -307.0019,328.0078 -3,0 -25.999,18.001 -48.999,41.001 -24,22 -79.9952,63.9951 -124.9952,94.9951 -45,30 -91.0117,62.0049 -102.0117,70.0049 -35,28 -316.9922,160.9931 -406.9922,192.9931 -47,16 -142,43 -210,60 -228,56 -317.998,64.0049 -742.998,70.0049 l -390,5.9912 L 4260.9961,3085 c 374,380 369.0088,372.9961 369.0088,495.9961 0,74 -34.0098,141.0029 -110.0098,213.0029 -65.8437,62.7813 -131.1088,96.2604 -194.8828,99.9756 z" />
    <path
       d="m 8245,3148 c -3,-7 -4,-353 -3,-768 l 3,-755 233,-3 232,-2 -2,767 -3,768 -228,3 c -177,2 -229,0 -232,-10 z"
       id="path2" />
    <path
       d="m 1565,2968 c -3,-7 -4,-353 -3,-768 l 3,-755 233,-3 232,-2 -2,767 -3,768 -228,3 c -177,2 -229,0 -232,-10 z"
       id="path3" />
    <path
       d="m 8247,834 c -4,-4 -7,-193 -7,-421 V 0 h 235 235 l -2,417 -3,418 -226,3 c -124,1 -228,-1 -232,-4 z"
       id="path4" />
    <path
       d="m 1567,654 c -4,-4 -7,-153 -7,-331 V 0 h 235 235 l -2,328 -3,327 -226,3 c -124,1 -228,-1 -232,-4 z"
       id="path5" />
  </g>
  <path
     style="fill:#000000;stroke-width:0.75"
     d="m 264.8589,189.73889 c 36.04294,37.2699 36.19631,37.42327 36.19631,37.42327"
     id="path10" />
</svg>
